<svg class="svg-icon" style="width: 1em; height: 1em;vertical-align: middle;fill: currentColor;overflow: hidden;" viewBox="0 0 1024 1024" version="1.1" xmlns="http://www.w3.org/2000/svg">
	<path d="M637.44 158.5152a12.6464 12.6464 0 0 1-6.4-1.7152L512 88.0896l-119.04 68.7104a12.8256 12.8256 0 0 1-17.4848-4.6848 12.7488 12.7488 0 0 1 4.6848-17.4848L512 58.5472l131.84 76.0832a12.8 12.8 0 0 1-6.4 23.8848zM512 965.4528l-131.84-76.0832a12.8 12.8 0 0 1 12.8-22.1696L512 935.9104l119.04-68.7104a12.8 12.8 0 0 1 12.8 22.1696L512 965.4528zM132.0704 450.2784a12.8 12.8 0 0 1-12.8-12.8l0.0256-152.2176 131.7888-76.1344a12.7744 12.7744 0 1 1 12.8 22.1696L144.896 300.0576l-0.0256 137.4464a12.7744 12.7744 0 0 1-12.8 12.7744zM766.4896 816.5632a12.8 12.8 0 0 1-6.4-23.8848l118.9888-68.736 0.0256-137.4464a12.8 12.8 0 0 1 25.6 0l-0.0256 152.2176-131.7888 76.1344a12.6464 12.6464 0 0 1-6.4 1.7152zM257.5104 816.5632a12.6464 12.6464 0 0 1-6.4-1.7152L119.296 738.7136l-0.0256-152.2176a12.8 12.8 0 0 1 25.6 0l0.0256 137.4464 118.9888 68.736a12.8 12.8 0 0 1-6.3744 23.8848zM891.9296 450.2784a12.8 12.8 0 0 1-12.8-12.8l-0.0256-137.4464-118.9888-68.736a12.8 12.8 0 0 1 12.8-22.1696l131.7888 76.1344 0.0256 152.2176a12.8 12.8 0 0 1-12.8 12.8z" fill="#FFDB6E" />
	<path d="M403.9168 578.2272l-0.256 87.936a3.2256 3.2256 0 0 1-4.8384 2.7904l-76.5696-44.2112a3.2256 3.2256 0 0 1-1.6128-2.7904l0.256-87.936c0-2.4832 2.688-4.0192 4.8384-2.7904l76.5696 44.2112a3.2 3.2 0 0 1 1.6128 2.7904zM404.224 463.7952l-0.256 87.936a3.2256 3.2256 0 0 1-4.8384 2.7904L322.56 510.3104a3.2256 3.2256 0 0 1-1.6128-2.7904l0.256-87.936c0-2.4832 2.688-4.0192 4.8384-2.7904l76.5696 44.2112c1.024 0.5888 1.6384 1.6384 1.6128 2.7904z" fill="#FFDB6E" />
	<path d="M503.4752 635.6992l-0.256 87.936a3.2256 3.2256 0 0 1-4.8384 2.7904l-76.5696-44.2112a3.2256 3.2256 0 0 1-1.6128-2.7904l0.256-87.936c0-2.4832 2.688-4.0192 4.8384-2.7904l76.5696 44.2112a3.2256 3.2256 0 0 1 1.6128 2.7904z" fill="#FFDB6E" />
	<path d="M620.0832 578.2272l0.256 87.936c0 2.4832 2.688 4.0192 4.8384 2.7904l76.5696-44.2112a3.2256 3.2256 0 0 0 1.6128-2.7904l-0.256-87.936a3.2256 3.2256 0 0 0-4.8384-2.7904l-76.5696 44.2112a3.2 3.2 0 0 0-1.6128 2.7904zM619.776 463.7952l0.256 87.936c0 2.4832 2.688 4.0192 4.8384 2.7904l76.5696-44.2112a3.2256 3.2256 0 0 0 1.6128-2.7904l-0.256-87.936a3.2256 3.2256 0 0 0-4.8384-2.7904l-76.5696 44.2112a3.1232 3.1232 0 0 0-1.6128 2.7904z" fill="#FFDB6E" />
	<path d="M520.5248 635.6992l0.256 87.936c0 2.4832 2.688 4.0192 4.8384 2.7904l76.5696-44.2112a3.2256 3.2256 0 0 0 1.6128-2.7904l-0.256-87.936a3.2256 3.2256 0 0 0-4.8384-2.7904l-76.5696 44.2112a3.2256 3.2256 0 0 0-1.6128 2.7904z" fill="#FFDB6E" />
	<path d="M514.048 389.6832l76.032-44.1856a3.2256 3.2256 0 0 0 0-5.5808l-76.5696-44.2112a3.2256 3.2256 0 0 0-3.2256 0l-76.032 44.1856a3.2256 3.2256 0 0 0 0 5.5808l76.5696 44.2112a3.1744 3.1744 0 0 0 3.2256 0z" fill="#FFDB6E" />
	<path d="M415.1296 447.1808l76.032-44.1856a3.2256 3.2256 0 0 0 0-5.5808l-76.5696-44.2112a3.2256 3.2256 0 0 0-3.2256 0l-76.032 44.1856a3.2256 3.2256 0 0 0 0 5.5808l76.5696 44.2112a3.2256 3.2256 0 0 0 3.2256 0zM613.6064 447.1808l76.032-44.1856a3.2256 3.2256 0 0 0 0-5.5808l-76.5696-44.2112a3.2256 3.2256 0 0 0-3.2256 0l-76.032 44.1856a3.2256 3.2256 0 0 0 0 5.5808l76.5696 44.2112a3.2256 3.2256 0 0 0 3.2256 0zM603.776 463.7952l-0.256 87.936a3.2256 3.2256 0 0 1-4.8384 2.7904l-76.5696-44.2112a3.2256 3.2256 0 0 1-1.6128-2.7904l0.256-87.936c0-2.4832 2.688-4.0192 4.8384-2.7904l76.5696 44.2112a3.2256 3.2256 0 0 1 1.6128 2.7904zM420.224 463.7952l0.256 87.936c0 2.4832 2.688 4.0192 4.8384 2.7904l76.5696-44.2112a3.2256 3.2256 0 0 0 1.6128-2.7904l-0.256-87.936a3.2256 3.2256 0 0 0-4.8384-2.7904l-76.5696 44.2112a3.2256 3.2256 0 0 0-1.6128 2.7904zM514.048 617.8304l76.032-44.1856a3.2256 3.2256 0 0 0 0-5.5808l-76.5696-44.2112a3.2256 3.2256 0 0 0-3.2256 0l-76.032 44.1856a3.2256 3.2256 0 0 0 0 5.5808l76.5696 44.2112a3.3024 3.3024 0 0 0 3.2256 0z" fill="#FFDB6E" />
</svg>