<svg xmlns="http://www.w3.org/2000/svg" viewBox="0 0 96 96" id="vr">
<path fill="#FFDB6E" d="M93.25,50.3l-7.79-3.37V45.86a6.81,6.81,0,0,0-6.8-6.8H59.79l-.68-3.43a3,3,0,0,0-2.38-2.29l-2-11.28a4,4,0,0,0-4-3H45.28a4,4,0,0,0-4,3.07l-2,11.26a3,3,0,0,0-2.37,2.29l-.68,3.43H17.34a6.81,6.81,0,0,0-6.8,6.8v1.07L2.75,50.3A4.45,4.45,0,0,0,.06,54.38v7.28a4.46,4.46,0,0,0,2.69,4.09l7.79,3.36v1.08a6.81,6.81,0,0,0,6.8,6.8H35.72a6.85,6.85,0,0,0,6.11-3.82,4.84,4.84,0,0,1,4.31-2.69h3.73a4.84,4.84,0,0,1,4.31,2.69A6.84,6.84,0,0,0,60.29,77H78.66a6.81,6.81,0,0,0,6.8-6.8V69.11l7.79-3.36a4.46,4.46,0,0,0,2.69-4.09V54.38A4.45,4.45,0,0,0,93.25,50.3Zm-50-27.86A2,2,0,0,1,45.28,21h5.44a2,2,0,0,1,2.05,1.41l1.92,10.83H41.31ZM38.85,36c.08-.38.47-.77,1.27-.77H56a1.11,1.11,0,0,1,1.15.77l.61,3H38.24ZM3.54,63.91a2.45,2.45,0,0,1-1.48-2.25V54.38a2.43,2.43,0,0,1,1.48-2.24l7-3V66.93Zm79.92,6.28a4.81,4.81,0,0,1-4.8,4.8H60.29A4.84,4.84,0,0,1,56,72.3a6.86,6.86,0,0,0-6.11-3.82H46.14A6.84,6.84,0,0,0,40,72.3,4.84,4.84,0,0,1,35.72,75H17.34a4.8,4.8,0,0,1-4.8-4.8V45.86a4.8,4.8,0,0,1,4.8-4.8H78.66a4.81,4.81,0,0,1,4.8,4.8Zm10.48-8.53a2.45,2.45,0,0,1-1.48,2.25l-7,3V49.11l7,3a2.43,2.43,0,0,1,1.48,2.24Z"></path>
<path fill="#FFDB6E" d="M19.1 64.86a3.6 3.6 0 103.6 3.6A3.6 3.6 0 0019.1 64.86zm0 5.2a1.6 1.6 0 111.6-1.6A1.6 1.6 0 0119.1 70.06zM19.1 43.06a3.6 3.6 0 103.6 3.6A3.6 3.6 0 0019.1 43.06zm0 5.2a1.6 1.6 0 111.6-1.6A1.6 1.6 0 0119.1 48.26zM76.9 64.86a3.6 3.6 0 103.6 3.6A3.6 3.6 0 0076.9 64.86zm0 5.2a1.6 1.6 0 111.6-1.6A1.6 1.6 0 0176.9 70.06zM76.9 43.06a3.6 3.6 0 103.6 3.6A3.6 3.6 0 0076.9 43.06zm0 5.2a1.6 1.6 0 111.6-1.6A1.6 1.6 0 0176.9 48.26zM47.64 50.18a1 1 0 00-1.36.38L42 58.22l-4.33-7.7a1 1 0 10-1.74 1l5.2 9.25a1 1 0 001.74 0L48 51.54A1 1 0 0047.64 50.18zM56.8 55.7A2.9 2.9 0 0056 50H50.6a1 1 0 00-1 1v9.25a1 1 0 002 0V55.82h2.9l3.2 5a1 1 0 00.84.46 1 1 0 00.84-1.54zM51.6 52H56a.91.91 0 110 1.81H51.6z"></path></svg>