<svg xmlns="http://www.w3.org/2000/svg" enable-background="new 0 0 64 64" viewBox="0 0 64 64" id="game-development">
<path fill="#FFDB6E" d="M21.18 51.76c-.08 0-.17-.01-.26-.03-.52-.14-.82-.67-.68-1.19l.97-3.55c.14-.52.68-.82 1.19-.68.52.14.82.67.68 1.19l-.97 3.55C22 51.48 21.61 51.76 21.18 51.76zM33.15 51.76c-.43 0-.82-.28-.93-.72l-.97-3.55c-.14-.52.16-1.05.68-1.19.52-.14 1.05.16 1.19.68l.97 3.55c.14.52-.16 1.05-.68 1.19C33.32 51.75 33.24 51.76 33.15 51.76z"></path>
<path fill="#FFDB6E" d="M51.02 48.21H44.5c-.54 0-.97-.43-.97-.97 0-.54.43-.97.97-.97h6.52c.76 0 1.38-.62 1.38-1.38v-1.23c0-.54.43-.97.97-.97.54 0 .97.43.97.97v1.23C54.34 46.72 52.85 48.21 51.02 48.21zM37.91 48.21H3.31C1.49 48.21 0 46.72 0 44.89V12.03c0-1.83 1.49-3.32 3.31-3.32h47.71c1.83 0 3.32 1.49 3.32 3.32v24.04c0 .54-.43.97-.97.97-.54 0-.97-.43-.97-.97V12.03c0-.76-.62-1.38-1.38-1.38H3.31c-.76 0-1.37.62-1.37 1.38v32.85c0 .76.62 1.38 1.37 1.38h34.59c.54 0 .97.43.97.97C38.88 47.78 38.44 48.21 37.91 48.21zM38.6 40.29H4.13c-.54 0-.97-.43-.97-.97V12.64c0-.54.43-.97.97-.97h46.08c.54 0 .97.43.97.97v23.57c0 .54-.43.97-.97.97s-.97-.43-.97-.97v-22.6H5.1v24.74h33.5c.54 0 .97.43.97.97C39.57 39.86 39.14 40.29 38.6 40.29zM36.68 55.29H17.65c-.54 0-.97-.43-.97-.97v-1.54c0-1.63 1.33-2.96 2.96-2.96h15.05c1.63 0 2.96 1.33 2.96 2.96v1.54C37.65 54.86 37.22 55.29 36.68 55.29zM18.62 53.35h17.09v-.57c0-.56-.46-1.02-1.02-1.02H19.64c-.56 0-1.02.46-1.02 1.02V53.35z"></path>
<path fill="#FFDB6E" d="M27.17,45.69c-1.36,0-2.46-1.1-2.46-2.46c0-1.36,1.1-2.46,2.46-2.46c1.36,0,2.46,1.1,2.46,2.46
					C29.63,44.58,28.52,45.69,27.17,45.69z M27.17,42.71c-0.29,0-0.52,0.23-0.52,0.52c0,0.29,0.23,0.52,0.52,0.52
					c0.29,0,0.52-0.23,0.52-0.52C27.69,42.94,27.46,42.71,27.17,42.71z"></path>
					<path fill="#FFDB6E" d="M21.43 31.7c-.17 0-.34-.04-.5-.14l-7.95-4.77c-.29-.18-.47-.49-.47-.83 0-.34.18-.66.47-.83l7.95-4.72c.46-.27 1.06-.12 1.33.34.27.46.12 1.06-.34 1.33l-6.55 3.89 6.55 3.94c.46.28.61.87.33 1.33C22.08 31.53 21.76 31.7 21.43 31.7zM32.9 31.7c-.33 0-.65-.17-.83-.47-.28-.46-.13-1.05.33-1.33l6.55-3.94-6.55-3.89c-.46-.27-.61-.87-.34-1.33.27-.46.87-.61 1.33-.34l7.95 4.72c.29.17.47.49.47.83 0 .34-.18.66-.47.83l-7.95 4.77C33.25 31.66 33.07 31.7 32.9 31.7zM24.8 33.14c-.12 0-.23-.02-.35-.06-.5-.19-.75-.75-.56-1.25l4.73-12.37c.19-.5.75-.75 1.25-.56.5.19.75.75.56 1.25l-4.73 12.37C25.56 32.9 25.19 33.14 24.8 33.14z"></path>
					<path fill="#FFDB6E" d="M40.75,50.65c-1.04,0-1.99-0.38-2.77-1.13c-0.13-0.11-1.49-1.41-1.1-4.65L36.99,44
				c0.07-0.54,0.13-1.07,0.19-1.61c0.06-0.51,0.15-1.09,0.24-1.68c0.07-0.48,0.15-0.95,0.2-1.37c0.22-1.85,1.07-3.53,2.38-4.71
				c1.41-1.28,4.3-2.85,8,0.62h4.83c3.7-3.47,6.59-1.9,8-0.62c1.31,1.19,2.16,2.86,2.38,4.71c0.05,0.42,0.12,0.89,0.2,1.36
				c0.09,0.58,0.18,1.16,0.24,1.67c0.03,0.31,0.08,0.63,0.12,0.94c0.07,0.54,0.14,1.07,0.19,1.61c0.25,3.12-0.94,4.44-1.07,4.58
				c-0.97,0.93-2.17,1.3-3.47,1.11c-1.19-0.18-2.28-0.82-3.08-1.81l-3.37-4.17h-5.11L44.5,48.8c-0.8,0.99-1.89,1.63-3.08,1.81
				C41.19,50.64,40.97,50.65,40.75,50.65z M43.54,35.09c-0.78,0-1.52,0.32-2.24,0.97c-0.97,0.87-1.59,2.12-1.76,3.51
				c-0.05,0.44-0.13,0.94-0.21,1.44c-0.09,0.55-0.17,1.11-0.23,1.59c-0.06,0.55-0.13,1.09-0.2,1.64l-0.11,0.87
				c-0.26,2.19,0.5,3,0.51,3.01c0.51,0.49,1.11,0.67,1.82,0.56c0.71-0.1,1.37-0.5,1.86-1.11l3.66-4.53
				c0.18-0.23,0.46-0.36,0.75-0.36h6.03c0.29,0,0.57,0.13,0.75,0.36l3.66,4.53c0.49,0.61,1.15,1,1.86,1.11
				c0.72,0.11,1.31-0.08,1.81-0.56c0,0,0,0,0,0c-0.01,0,0.68-0.88,0.51-3.05c-0.04-0.5-0.11-1-0.17-1.5
				c-0.04-0.33-0.09-0.66-0.13-0.99c-0.05-0.49-0.14-1.03-0.22-1.58c-0.08-0.49-0.15-0.99-0.21-1.43c-0.17-1.39-0.79-2.64-1.76-3.51
				c-1.69-1.53-3.54-1.26-5.63,0.83c-0.18,0.18-0.43,0.28-0.69,0.28h-5.61c-0.26,0-0.5-0.1-0.69-0.28
				C45.73,35.69,44.6,35.09,43.54,35.09z"></path>
				<path fill="#FFDB6E" d="M57.15 43.66c-1.96 0-3.55-1.59-3.55-3.55 0-1.96 1.59-3.55 3.55-3.55 1.96 0 3.55 1.59 3.55 3.55C60.69 42.07 59.1 43.66 57.15 43.66zM57.15 38.5c-.89 0-1.61.72-1.61 1.61 0 .89.72 1.61 1.61 1.61.89 0 1.61-.72 1.61-1.61C58.75 39.22 58.03 38.5 57.15 38.5zM43.66 43.66c-1.96 0-3.55-1.59-3.55-3.55 0-1.96 1.59-3.55 3.55-3.55 1.96 0 3.55 1.59 3.55 3.55C47.2 42.07 45.61 43.66 43.66 43.66zM43.66 38.5c-.89 0-1.61.72-1.61 1.61 0 .89.72 1.61 1.61 1.61.89 0 1.61-.72 1.61-1.61C45.27 39.22 44.54 38.5 43.66 38.5z"></path></svg>