<svg width="42" height="42" viewBox="0 0 42 42" fill="none" xmlns="http://www.w3.org/2000/svg">
<path opacity="0.15" fill-rule="evenodd" clip-rule="evenodd" d="M40.6377 19.814C40.4183 19.7228 40.1658 19.7732 39.9978 19.9416L38.2394 21.7057V9.71161C38.2394 9.38628 37.9766 9.12261 37.6523 9.12261H33.1413L34.7788 7.47985L34.7795 7.47906L36.3573 5.89617C36.6954 5.55704 36.8816 5.10591 36.8816 4.62624C36.8816 4.14658 36.6954 3.6956 36.3573 3.35631L34.5328 1.52591C34.1948 1.18677 33.7451 1 33.2669 1C32.7888 1 32.3392 1.18677 32.0011 1.52591L30.4225 3.10958L28.515 5.02322L24.4288 9.12254H6.2047V3.29564C6.2047 2.9703 5.94181 2.70665 5.61759 2.70665C3.07149 2.70681 1 4.7848 1 7.33924V32.3559C1 32.3994 1.005 32.4417 1.01391 32.4825C1.095 33.5664 1.56242 34.5734 2.3436 35.3379C3.1786 36.1549 4.28087 36.6048 5.44743 36.6048H23.3879L20.0091 39.9946C19.8412 40.163 19.791 40.4162 19.8818 40.6364C19.9727 40.8565 20.1868 41 20.4243 41H40.413C40.7372 41 41.0001 40.7364 41.0001 40.411V20.3582C41.0001 20.12 40.857 19.9052 40.6377 19.814ZM32.8315 2.35897C33.0715 2.11804 33.4626 2.11804 33.7026 2.35897L35.5272 4.18945C35.7673 4.4303 35.7673 4.82242 35.5272 5.06335L34.3638 6.23053L31.668 3.52615L32.8315 2.35897ZM30.8377 4.35913L33.5334 7.06343L32.4562 8.14417L29.7606 5.43987L30.8377 4.35913ZM18.3967 21.76L16.715 22.3556L15.5945 21.2315L16.1882 19.5444L18.3967 21.76ZM35.8293 30.1707L30.1707 35.8293C30.1077 35.8923 30.1523 36 30.2414 36H36V30.2414C36 30.1523 35.8923 30.1077 35.8293 30.1707ZM16 18.5L19.5 22L32.5 9L29 5.5L16 18.5Z" fill="url(#paint0_linear)"/>
<path d="M36.3998 29.2549C36.1804 29.1637 35.9279 29.2141 35.76 29.3825L29.3439 35.8193C29.176 35.9878 29.1257 36.2411 29.2167 36.4612C29.3075 36.6814 29.5217 36.8248 29.7591 36.8248H36.1752C36.4995 36.8248 36.7623 36.5611 36.7623 36.2358V29.799C36.7622 29.5609 36.6192 29.3461 36.3998 29.2549ZM31.1763 35.6469L35.5879 31.221V35.6469H31.1763Z" fill="url(#paint1_linear)" stroke="url(#paint2_linear)" stroke-width="0.25"/>
<path d="M40.6377 19.814C40.4183 19.7228 40.1658 19.7732 39.9978 19.9416L38.2394 21.7057V9.71161C38.2394 9.38628 37.9766 9.12261 37.6523 9.12261H33.1413L34.7788 7.47985C34.7791 7.47962 34.7793 7.47929 34.7795 7.47906L36.3573 5.89617C36.6954 5.55704 36.8816 5.10591 36.8816 4.62624C36.8816 4.14658 36.6954 3.6956 36.3573 3.35631L34.5328 1.52591C34.1948 1.18677 33.7451 1 33.2669 1C32.7888 1 32.3392 1.18677 32.0011 1.52591L30.4225 3.10958L28.515 5.02322L24.4288 9.12254H6.2047V3.29564C6.2047 2.9703 5.94181 2.70665 5.61759 2.70665C3.07149 2.70681 1 4.7848 1 7.33924V32.3559C1 32.3994 1.005 32.4417 1.01391 32.4825C1.095 33.5664 1.56242 34.5734 2.3436 35.3379C3.1786 36.1549 4.28087 36.6048 5.44743 36.6048H23.3879L20.0091 39.9946C19.8412 40.163 19.791 40.4162 19.8818 40.6364C19.9727 40.8565 20.1868 41 20.4243 41H40.413C40.7372 41 41.0001 40.7364 41.0001 40.411V20.3582C41.0001 20.12 40.857 19.9052 40.6377 19.814ZM32.8315 2.35897C33.0715 2.11804 33.4626 2.11804 33.7026 2.35897L35.5272 4.18945C35.7673 4.4303 35.7673 4.82242 35.5272 5.06335L34.3638 6.23053L31.668 3.52615L32.8315 2.35897ZM30.8377 4.35913L33.5334 7.06343L32.4562 8.14417L29.7606 5.43987L30.8377 4.35913ZM39.826 26.9764H38.7428C38.4185 26.9764 38.1557 27.2401 38.1557 27.5654C38.1557 27.8908 38.4185 28.1544 38.7428 28.1544H39.826V29.9293H38.7428C38.4185 29.9293 38.1557 30.1931 38.1557 30.5184C38.1557 30.8437 38.4185 31.1074 38.7428 31.1074H39.826V32.8822H38.7428C38.4185 32.8822 38.1557 33.1458 38.1557 33.4712C38.1557 33.7965 38.4185 34.0602 38.7428 34.0602H39.826V35.8351H38.7428C38.4185 35.8351 38.1557 36.0988 38.1557 36.4241C38.1557 36.7495 38.4185 37.0131 38.7428 37.0131H39.826V39.8222H21.8416L27.7719 33.873C28.0012 33.6428 28.0012 33.27 27.7719 33.04C27.7456 33.0135 27.7173 32.9906 27.6877 32.9703C27.4591 32.8133 27.1446 32.8363 26.9415 33.04L24.5622 35.427H5.44751C3.66688 35.427 2.23344 34.0324 2.17703 32.2493C2.18039 32.1373 2.18906 32.0263 2.20297 31.9166C2.20305 31.916 2.20313 31.9154 2.20321 31.9147C2.20977 31.8626 2.21766 31.8107 2.22664 31.7592C2.22766 31.7533 2.22875 31.7473 2.22977 31.7415C2.23797 31.6955 2.24719 31.6497 2.25727 31.6041C2.26008 31.5914 2.26305 31.5787 2.26602 31.5661C2.27492 31.5275 2.28453 31.4892 2.29485 31.451C2.30047 31.4303 2.30633 31.4099 2.31235 31.3893C2.32094 31.3593 2.32985 31.3295 2.3393 31.2999C2.34875 31.2704 2.35883 31.2411 2.36907 31.2119C2.37617 31.1915 2.38321 31.171 2.39086 31.1507C2.40516 31.1121 2.42032 31.074 2.43594 31.0361C2.44039 31.0252 2.44477 31.0142 2.44938 31.0033C2.46946 30.9562 2.49032 30.9098 2.51235 30.8638C2.51328 30.8619 2.51414 30.8599 2.51508 30.858C2.9743 29.9046 3.85751 29.1938 4.91743 28.9732C4.9204 28.9726 4.92337 28.9719 4.92634 28.9712C4.97493 28.9613 5.02399 28.9528 5.07337 28.9449C5.08157 28.9436 5.08977 28.9418 5.09813 28.9406C5.14274 28.9338 5.18782 28.9285 5.2329 28.9234C5.24556 28.922 5.25813 28.92 5.27087 28.9188C5.31438 28.9144 5.35829 28.9115 5.4022 28.9087C5.4161 28.9078 5.43001 28.9064 5.44392 28.9057C5.50142 28.9028 5.55938 28.9013 5.61759 28.9013C5.94181 28.9013 6.2047 28.6377 6.2047 28.3123V24.0416C6.2047 23.7163 5.94181 23.4527 5.61759 23.4527C5.29337 23.4527 5.03048 23.7163 5.03048 24.0416V27.7604C4.03907 27.8862 3.11883 28.3298 2.39321 29.0407C2.31688 29.1154 2.24453 29.1932 2.17406 29.2722V7.33924C2.17406 5.63526 3.41047 4.21531 5.0304 3.93488V21.6858C5.0304 22.011 5.29329 22.2748 5.61751 22.2748C5.94173 22.2748 6.20462 22.011 6.20462 21.6858V10.3006H23.2547L20.009 13.5567C19.7797 13.7868 19.7797 14.1597 20.009 14.3897C20.2383 14.6196 20.61 14.6196 20.8393 14.3897L25.0872 10.1281C25.0873 10.128 25.0874 10.1278 25.0875 10.1277L28.9301 6.27278L31.6257 8.97715L31.3094 9.29441C31.3092 9.29465 31.3089 9.29488 31.3087 9.29513L19.4705 21.1715L16.7749 18.4672L19.1083 16.1263C19.3376 15.8961 19.3376 15.5233 19.1083 15.2933C18.879 15.0634 18.5073 15.0634 18.2781 15.2933L15.5294 18.0507C15.5147 18.0655 15.501 18.081 15.4881 18.097C15.4838 18.1024 15.48 18.1081 15.4759 18.1136C15.4676 18.1247 15.4595 18.1358 15.4519 18.1474C15.4476 18.1542 15.4437 18.1611 15.4396 18.168C15.4332 18.179 15.4269 18.1902 15.4212 18.2015C15.4175 18.2088 15.4141 18.2164 15.4107 18.224C15.4054 18.2355 15.4006 18.2473 15.3961 18.259C15.3946 18.2632 15.3925 18.2671 15.391 18.2712L14.2472 21.522L13.4674 23.7384C13.4571 23.7678 13.4496 23.7978 13.4441 23.828H11.4916C11.1674 23.828 10.9045 24.0916 10.9045 24.4169C10.9045 24.7423 11.1674 25.0059 11.4916 25.0059H27.7505C28.0748 25.0059 28.3376 24.7423 28.3376 24.4169C28.3376 24.0916 28.0748 23.828 27.7505 23.828H16.0854L19.6659 22.5599C19.6689 22.5589 19.6717 22.5574 19.6746 22.5563C19.6886 22.5511 19.7022 22.5452 19.7157 22.5391C19.7211 22.5366 19.7265 22.5342 19.7318 22.5316C19.7458 22.5246 19.7596 22.5168 19.7732 22.5085C19.7776 22.5058 19.7821 22.5034 19.7864 22.5007C19.8006 22.4916 19.8143 22.4816 19.8279 22.4711C19.8312 22.4686 19.8347 22.4663 19.838 22.4636C19.8543 22.4504 19.8703 22.4363 19.8855 22.421L31.9671 10.3007H37.0652V22.8837L28.667 31.3089C28.4377 31.5391 28.4377 31.9119 28.667 32.1419C28.6813 32.1563 28.6962 32.1698 28.7116 32.1823C28.8193 32.2704 28.9508 32.3145 29.0822 32.3145C29.2136 32.3145 29.3451 32.2704 29.4527 32.1823C29.4681 32.1698 29.483 32.1563 29.4973 32.1419L29.4976 32.1417L39.826 21.7799V26.9764ZM18.3967 21.76L16.715 22.3556L15.5945 21.2315L16.1882 19.5444L18.3967 21.76Z" fill="url(#paint3_linear)" stroke="url(#paint4_linear)" stroke-width="0.25"/>
<defs>
<linearGradient id="paint0_linear" x1="3.26667" y1="1" x2="37.8" y2="39.1334" gradientUnits="userSpaceOnUse">
<stop offset="0.259336" stop-color="#FFDB6E"/>
<stop offset="1" stop-color="#FFBC5E"/>
</linearGradient>
<linearGradient id="paint1_linear" x1="29.602" y1="29.21" x2="36.1781" y2="36.4484" gradientUnits="userSpaceOnUse">
<stop offset="0.259336" stop-color="#FFDB6E"/>
<stop offset="1" stop-color="#FFBC5E"/>
</linearGradient>
<linearGradient id="paint2_linear" x1="29.602" y1="29.21" x2="36.1781" y2="36.4484" gradientUnits="userSpaceOnUse">
<stop offset="0.259336" stop-color="#FFDB6E"/>
<stop offset="1" stop-color="#FFBC5E"/>
</linearGradient>
<linearGradient id="paint3_linear" x1="3.26667" y1="1" x2="37.8" y2="39.1334" gradientUnits="userSpaceOnUse">
<stop offset="0.259336" stop-color="#FFDB6E"/>
<stop offset="1" stop-color="#FFBC5E"/>
</linearGradient>
<linearGradient id="paint4_linear" x1="3.26667" y1="1" x2="37.8" y2="39.1334" gradientUnits="userSpaceOnUse">
<stop offset="0.259336" stop-color="#FFDB6E"/>
<stop offset="1" stop-color="#FFBC5E"/>
</linearGradient>
</defs>
</svg>
