<?xml version="1.0" encoding="utf-8"?>
<!-- Generator: Adobe Illustrator 26.2.1, SVG Export Plug-In . SVG Version: 6.00 Build 0)  -->
<svg version="1.1" id="Layer_1" xmlns="http://www.w3.org/2000/svg" xmlns:xlink="http://www.w3.org/1999/xlink" x="0px" y="0px"
	 viewBox="0 0 192 192" style="enable-background:new 0 0 192 192;" xml:space="preserve">
<style type="text/css">
	.st0{fill:#9F9F9F;}
</style>
<path class="st0" d="M141.5,89c-0.8-0.4-1.7-0.8-2.5-1.1c-1.5-27.3-16.4-42.9-41.5-43.1c-0.1,0-0.2,0-0.3,0c-15,0-27.4,6.4-35.1,18
	l13.8,9.5c5.7-8.7,14.7-10.5,21.3-10.5c0.1,0,0.2,0,0.2,0c8.2,0.1,14.5,2.5,18.5,7.1c2.9,3.4,4.9,8.1,5.9,14
	c-7.3-1.2-15.2-1.6-23.7-1.1C74.3,83.1,59,97,60,116.3c0.5,9.8,5.4,18.2,13.7,23.7c7,4.7,16.1,6.9,25.6,6.4
	c12.5-0.7,22.2-5.4,29-14.1c5.2-6.6,8.5-15.2,9.9-25.9c5.9,3.6,10.3,8.3,12.8,14c4.1,9.6,4.4,25.5-8.5,38.4
	c-11.3,11.3-24.9,16.2-45.5,16.4c-22.8-0.2-40.1-7.5-51.3-21.7C35.2,140,29.8,120.7,29.6,96c0.2-24.7,5.6-44,16.1-57.3
	C57,24.4,74.2,17.1,97,16.9c23,0.2,40.5,7.5,52.2,21.8c5.7,7,10,15.9,12.9,26.2l16.1-4.3C174.7,48,169.3,37,162,28
	C147,9.6,125.2,0.2,97.1,0H97C68.9,0.2,47.3,9.6,32.8,28.1C19.9,44.5,13.2,67.3,13,95.9l0,0.1l0,0.1c0.2,28.6,6.9,51.4,19.8,67.9
	C47.3,182.4,68.9,191.8,97,192h0.1c25-0.2,42.6-6.7,57-21.2c19-18.9,18.4-42.7,12.1-57.3C161.8,103.1,153.2,94.6,141.5,89z
	 M98.4,129.5c-10.4,0.6-21.3-4.1-21.8-14.1c-0.4-7.4,5.3-15.7,22.5-16.7c2-0.1,3.9-0.2,5.8-0.2c6.2,0,12.1,0.6,17.4,1.8
	C120.3,124.9,108.7,128.9,98.4,129.5z"/>
</svg>
