<svg width="185" height="185" viewBox="0 0 185 185" fill="none" xmlns="http://www.w3.org/2000/svg">
<path d="M0 92.5C0 41.4137 41.4137 0 92.5 0H135C162.614 0 185 22.3858 185 50V92.5C185 143.586 143.586 185 92.5 185V185C41.4137 185 0 143.586 0 92.5V92.5Z" fill="url(#paint0_linear_13_13)"/>
<path d="M137.109 88.3594C137.109 88.3594 137.156 88.4766 137.25 88.7109V88.9922C137.25 89.1797 137.25 89.3672 137.25 89.5547C137.25 89.7422 137.203 89.8359 137.109 89.8359H136.828C136.828 89.9297 136.781 90.0234 136.688 90.1172C136.5 90.1172 136.336 90.2812 136.195 90.6094C136.102 90.9375 135.961 91.3594 135.773 91.875C135.305 92.625 134.859 93.6797 134.438 95.0391C134.016 96.3516 133.453 97.875 132.75 99.6094C131.391 103.078 129.82 107.414 128.039 112.617C127.852 113.367 127.617 114.023 127.336 114.586C127.102 115.148 126.891 115.828 126.703 116.625C126.328 117.188 126.023 117.844 125.789 118.594C125.555 119.297 125.297 120.07 125.016 120.914C124.828 121.477 124.547 122.133 124.172 122.883C123.844 123.586 123.539 124.383 123.258 125.273C122.883 125.836 122.555 126.492 122.273 127.242C121.992 127.945 121.641 128.719 121.219 129.562L120.234 131.602C120.047 132.07 119.789 132.492 119.461 132.867C119.133 133.242 118.875 133.594 118.688 133.922C118.5 134.109 118.312 134.297 118.125 134.484C117.984 134.672 117.82 134.859 117.633 135.047L117.352 135.609H116.93C116.93 135.703 116.883 135.797 116.789 135.891H116.508C116.414 135.891 116.367 136.078 116.367 136.453H116.086H115.945H115.664H115.453H115.172H114.75H114.609H114.188C114 136.453 113.906 136.359 113.906 136.172C113.906 135.984 113.859 135.891 113.766 135.891C113.578 135.891 113.438 135.844 113.344 135.75C113.25 135.656 113.109 135.609 112.922 135.609L112.148 134.203C112.148 134.016 112.125 133.898 112.078 133.852C112.031 133.805 111.914 133.617 111.727 133.289C111.727 133.102 111.703 132.914 111.656 132.727C111.609 132.539 111.586 132.352 111.586 132.164C111.398 132.164 111.305 131.977 111.305 131.602V131.32C111.211 131.32 111.164 131.227 111.164 131.039V130.758C111.164 130.289 111.164 130.008 111.164 129.914C111.164 129.867 111.07 129.75 110.883 129.562V129V128.719V125.555V123.797C111.07 123.234 111.164 122.625 111.164 121.969C111.164 121.266 111.211 120.633 111.305 120.07C111.492 118.898 111.609 117.797 111.656 116.766C111.703 115.688 111.82 114.586 112.008 113.461C112.383 109.148 112.969 104.812 113.766 100.453C113.953 98.25 114.188 96.0469 114.469 93.8438C114.75 91.6406 115.078 89.4375 115.453 87.2344C115.641 85.0312 115.875 82.7812 116.156 80.4844C116.484 78.1875 116.742 75.9375 116.93 73.7344C117.117 71.4375 117.281 69.1875 117.422 66.9844C117.562 64.7344 117.633 62.3672 117.633 59.8828C117.633 57.6797 117.562 55.5703 117.422 53.5547C117.281 51.5391 117.07 49.8047 116.789 48.3516C116.602 47.5078 116.391 46.7344 116.156 46.0312C115.922 45.2812 115.594 44.625 115.172 44.0625C114.609 43.2188 113.766 42.3516 112.641 41.4609H111.727C111.727 41.2734 111.703 41.1797 111.656 41.1797C111.609 41.1797 111.586 41.1328 111.586 41.0391V40.8984H111.164H110.32H109.406H108.562H107.438C107.344 40.8984 107.227 40.9922 107.086 41.1797C106.945 41.3672 106.781 41.4609 106.594 41.4609C106.312 41.4609 106.008 41.5547 105.68 41.7422H104.836C104.742 42.0234 104.625 42.1875 104.484 42.2344C104.344 42.2813 104.18 42.3984 103.992 42.5859C103.617 42.5859 103.312 42.7734 103.078 43.1484C102.984 43.1484 102.867 43.1953 102.727 43.2891C102.586 43.3828 102.422 43.4297 102.234 43.4297C101.953 43.7109 101.695 43.9688 101.461 44.2031C101.227 44.3906 100.922 44.625 100.547 44.9062C100.266 45.0938 99.9844 45.3516 99.7031 45.6797C99.4688 46.0078 99.1641 46.3359 98.7891 46.6641C97.7109 47.7422 96.6328 48.8438 95.5547 49.9688C94.5234 51.0938 93.5391 52.3828 92.6016 53.8359C91.5234 55.1953 90.5391 56.6719 89.6484 58.2656C88.8047 59.8125 87.9609 61.4062 87.1172 63.0469C86.2734 64.5 85.4062 66.0469 84.5156 67.6875C83.6719 69.2812 82.8047 70.8984 81.9141 72.5391C81.1641 73.9922 80.3906 75.5156 79.5938 77.1094C78.8438 78.6562 78.0469 80.1094 77.2031 81.4688C76.4531 83.1094 75.7031 84.6094 74.9531 85.9688C74.25 87.2812 73.5 88.6641 72.7031 90.1172C71.9531 91.4766 71.1797 92.7891 70.3828 94.0547C69.6328 95.2734 68.8828 96.4688 68.1328 97.6406C66.6797 100.406 65.3203 102.797 64.0547 104.812C63.6797 105.281 63.3516 105.82 63.0703 106.43C62.7891 106.992 62.4609 107.508 62.0859 107.977C61.8984 108.539 61.6406 109.078 61.3125 109.594C61.0312 110.062 60.7031 110.672 60.3281 111.422C59.1562 113.344 58.0781 115.125 57.0938 116.766C56.1094 118.406 55.125 119.883 54.1406 121.195C53.2969 122.836 52.5703 124.172 51.9609 125.203C51.3047 126.188 50.7422 127.078 50.2734 127.875C49.8984 128.344 49.6406 128.672 49.5 128.859C49.3125 129.047 49.125 129.281 48.9375 129.562L48.6562 129.844C48.4688 130.594 48.2812 130.594 48.0938 129.844V129V128.859C48.0938 128.766 48.1172 128.672 48.1641 128.578C48.2109 128.484 48.2344 128.344 48.2344 128.156C48.3281 128.062 48.6094 127.195 49.0781 125.555C49.4531 124.711 49.875 123.562 50.3438 122.109C50.7656 120.656 51.3047 118.922 51.9609 116.906C52.6172 115.172 53.3438 113.25 54.1406 111.141C54.9844 109.031 55.8984 106.828 56.8828 104.531C57.0703 103.781 57.3281 103.125 57.6562 102.562C57.9844 101.953 58.2422 101.25 58.4297 100.453L59.3438 98.7656C59.4375 98.2969 59.5547 97.9688 59.6953 97.7812C59.8359 97.5469 60 97.1953 60.1875 96.7266C61.125 94.1484 62.4141 91.5703 64.0547 88.9922C64.7109 87.3516 65.3438 85.8516 65.9531 84.4922C66.6094 83.1328 67.3359 81.75 68.1328 80.3438C68.8828 78.9844 69.6797 77.6016 70.5234 76.1953C71.4141 74.7422 72.2812 73.3359 73.125 71.9766C73.9688 70.5234 74.8594 69.1641 75.7969 67.8984C76.7344 66.5859 77.7188 65.25 78.75 63.8906C79.6875 62.7188 80.6719 61.5234 81.7031 60.3047C82.7344 59.0391 83.7656 57.75 84.7969 56.4375C85.875 55.3594 86.9531 54.2344 88.0312 53.0625C89.1562 51.8438 90.2344 50.6719 91.2656 49.5469C92.3438 48.1875 93.4219 46.9922 94.5 45.9609C95.625 44.8828 96.7734 43.7578 97.9453 42.5859C99.0234 41.2266 100.148 40.0547 101.32 39.0703C102.492 38.0859 103.758 37.1484 105.117 36.2578C105.211 36.2578 105.328 36.1641 105.469 35.9766C105.609 35.7891 105.773 35.6953 105.961 35.6953C106.148 35.6953 106.312 35.6484 106.453 35.5547C106.641 35.4609 106.828 35.4141 107.016 35.4141C107.203 35.0391 107.484 34.8516 107.859 34.8516C108.141 34.6641 108.516 34.5703 108.984 34.5703C109.266 34.1953 109.617 33.9844 110.039 33.9375L111.164 33.6562H111.305H111.586H112.008H113.344C114 33.6562 114.703 33.8672 115.453 34.2891C116.25 34.6641 117.023 35.1328 117.773 35.6953C118.43 36.5391 119.109 37.5938 119.812 38.8594C120.094 39.4219 120.398 40.0547 120.727 40.7578C121.055 41.4141 121.336 42.0234 121.57 42.5859C121.758 43.3359 121.945 44.0391 122.133 44.6953C122.32 45.3047 122.461 46.0547 122.555 46.9453C122.742 47.6953 122.906 48.375 123.047 48.9844C123.188 49.5469 123.305 50.2031 123.398 50.9531C123.586 52.4063 123.75 53.8828 123.891 55.3828C124.031 56.8359 124.102 58.2422 124.102 59.6016C124.195 61.0547 124.242 62.4375 124.242 63.75C124.242 65.0156 124.242 66.3281 124.242 67.6875C124.148 69.0469 124.102 70.3359 124.102 71.5547C124.102 72.7734 124.008 74.0625 123.82 75.4219C123.727 78 123.586 80.5781 123.398 83.1562C123.211 85.6875 123.023 88.1953 122.836 90.6797C122.648 92.9766 122.391 95.3203 122.062 97.7109C121.734 100.055 121.453 102.328 121.219 104.531C120.938 106.453 120.68 108.281 120.445 110.016C120.211 111.75 120 113.461 119.812 115.148C120 114.211 120.328 113.555 120.797 113.18C121.453 111.82 122.062 110.602 122.625 109.523C123.234 108.398 123.891 107.297 124.594 106.219C125.672 104.203 126.727 102.328 127.758 100.594C128.789 98.8125 129.75 97.2422 130.641 95.8828C131.484 94.2422 132.258 92.9297 132.961 91.9453C133.711 90.9141 134.367 90.0234 134.93 89.2734C135.211 89.0859 135.469 88.8984 135.703 88.7109C135.938 88.4766 136.148 88.3594 136.336 88.3594H136.688H136.828H137.109ZM115.031 122.672H114.75H115.031ZM114.75 122.672H114.609H114.75Z" fill="black" fill-opacity="0.86"/>
<defs>
<linearGradient id="paint0_linear_13_13" x1="0" y1="92" x2="185" y2="92" gradientUnits="userSpaceOnUse">
<stop stop-color="#FFDB6E"/>
<stop offset="1" stop-color="#FFBC5E"/>
</linearGradient>
</defs>
</svg>
