<?xml version="1.0" encoding="UTF-8" standalone="no"?>
<!-- Generator: Adobe Illustrator 22.1.0, SVG Export Plug-In . SVG Version: 6.00 Build 0)  -->
<svg xmlns:dc="http://purl.org/dc/elements/1.1/" xmlns:cc="http://creativecommons.org/ns#" xmlns:rdf="http://www.w3.org/1999/02/22-rdf-syntax-ns#" xmlns:svg="http://www.w3.org/2000/svg" xmlns="http://www.w3.org/2000/svg" xmlns:sodipodi="http://sodipodi.sourceforge.net/DTD/sodipodi-0.dtd" xmlns:inkscape="http://www.inkscape.org/namespaces/inkscape" version="1.1" x="0px" y="0px" viewBox="0 0 619.59406 619.59403" xml:space="preserve" id="svg37" sodipodi:docname="RStudio-Logo-flat.svg" width="619.59406" height="619.59406" inkscape:version="0.92.4 (5da689c313, 2019-01-14)"><metadata id="metadata43"><rdf:RDF><cc:Work rdf:about=""><dc:format>image/svg+xml</dc:format><dc:type rdf:resource="http://purl.org/dc/dcmitype/StillImage"/><dc:title/></cc:Work></rdf:RDF></metadata><defs id="defs41"/><sodipodi:namedview pagecolor="#ffffff" bordercolor="#666666" borderopacity="1" objecttolerance="10" gridtolerance="10" guidetolerance="10" inkscape:pageopacity="0" inkscape:pageshadow="2" inkscape:window-width="1366" inkscape:window-height="705" id="namedview39" showgrid="false" fit-margin-top="0" fit-margin-left="0" fit-margin-right="0" fit-margin-bottom="0" inkscape:zoom="0.1591839" inkscape:cx="830.86932" inkscape:cy="172.82605" inkscape:window-x="-8" inkscape:window-y="-8" inkscape:window-maximized="1" inkscape:current-layer="g32"/>
<style type="text/css" id="style2">
	.st0{fill:#75AADB;}
	.st1{fill:#4D4D4D;}
	.st2{fill:#FFFFFF;}
	.st3{fill:url(#SVGID_1_);}
	.st4{fill:url(#SVGID_2_);}
	.st5{fill:url(#SVGID_3_);}
	.st6{fill:url(#SVGID_4_);}
	.st7{fill:url(#SVGID_5_);}
	.st8{fill:url(#SVGID_6_);}
	.st9{fill:url(#SVGID_7_);}
	.st10{fill:url(#SVGID_8_);}
	.st11{fill:url(#SVGID_9_);}
	.st12{fill:url(#SVGID_10_);}
	.st13{opacity:0.18;fill:url(#SVGID_11_);}
	.st14{opacity:0.3;}
</style>
<g id="Gray_Logo" transform="translate(-8.8808475,-3.1334903)">
</g>
<g id="Black_Letters" transform="translate(-8.8808475,-3.1334903)">
</g>
<g id="Blue_Gradient_Letters" transform="translate(-8.8808475,-3.1334903)">
	<g id="g32">
		
			<circle transform="matrix(0.7071,-0.7071,0.7071,0.7071,-127.9265,317.0317)" class="st0" cx="318.70001" cy="312.89999" id="ellipse6" r="309.79999" style="fill:#75aadb"/>
		
		<g id="g24">
			<path class="st2" d="m 424.7,411.8 h 33.6 v 26.1 H 407 L 322,310.5 H 276.7 V 411.8 H 321 v 26.1 H 209.5 v -26.1 h 38.3 V 187.3 l -38.3,-4.7 v -24.7 c 14.5,3.3 27.1,5.6 42.9,5.6 23.8,0 48.1,-5.6 71.9,-5.6 46.2,0 89.1,21 89.1,72.3 0,39.7 -23.8,64.9 -60.7,75.6 z m -148,-126.5 24.3,0.5 c 59.3,0.9 82.1,-21.9 82.1,-52.3 0,-35.5 -25.7,-49.5 -58.3,-49.5 -15.4,0 -31.3,1.4 -48.1,3.3 z" id="path22" inkscape:connector-curvature="0" style="fill:#ffffff"/>
		</g>
		
	</g>
</g>
<g id="White_Letters" transform="translate(-8.8808475,-3.1334903)">
</g>
<g id="R_Ball" transform="translate(-8.8808475,-3.1334903)">
</g>
</svg>